<?xml version="1.0" encoding="utf-8"?>
<!-- Generator: Adobe Illustrator 24.3.0, SVG Export Plug-In . SVG Version: 6.00 Build 0)  -->
<svg version="1.1" id="Layer_1" xmlns="http://www.w3.org/2000/svg" xmlns:xlink="http://www.w3.org/1999/xlink" x="0px" y="0px"
	 viewBox="0 0 2309.2 278.52" style="enable-background:new 0 0 2309.2 278.52;" xml:space="preserve">
<style type="text/css">
	.st0{fill:#C3832B;}
	.st1{fill:#1A3561;}
</style>
<g>
	<g>
		<path class="st0" d="M927.5,246.4c-3.32-1.99-6.64-3.15-10.54-3.15c-8.05,0-13.11,5.56-13.11,14.61c0,9.13,5.06,14.94,13.2,14.94
			c4.15,0,8.13-1.58,10.87-3.65l1.33,6.31c-3.24,1.91-7.97,3.07-12.37,3.07c-11.78,0-19.59-7.72-19.59-20.42
			c0-12.45,7.88-20.58,19.67-20.58c4.56,0,9.3,1.16,12.61,3.15L927.5,246.4z"/>
		<path class="st0" d="M953.27,278.52c-11.54,0-19.92-7.8-19.92-20.42c0-11.87,8.3-20.58,19.92-20.58
			c11.45,0,19.92,7.72,19.92,20.33C973.19,269.8,964.8,278.52,953.27,278.52z M953.1,243.16c-7.8,0-13.2,5.89-13.2,14.69
			c0,9.13,5.39,15.02,13.44,15.02c7.88,0,13.2-5.89,13.2-14.77C966.55,249.06,961.15,243.16,953.1,243.16z"/>
		<path class="st0" d="M980.94,277.61v-39.17h6.56v33.28h18.59v5.89H980.94z"/>
		<path class="st0" d="M1012.17,277.61v-39.17h6.56v33.28h18.59v5.89H1012.17z"/>
		<path class="st0" d="M1043.39,277.61v-39.17h25.73v5.81h-19.25v10.79h16.02v5.89h-16.02v10.87h19.25v5.81H1043.39z"/>
		<path class="st0" d="M1093.71,272.88c3.07,0,5.89-0.75,7.97-1.83v-8.22h-10.04v-5.89h16.27v17.93c-4.15,2.49-9.71,3.65-14.27,3.65
			c-11.79,0-20-7.72-20-20.42c0-12.53,8.22-20.58,20-20.58c4.73,0,10.12,1.25,13.53,3.32l-2.16,5.89c-3.24-2.16-7.3-3.49-11.29-3.49
			c-8.13,0-13.61,5.56-13.61,14.61C1080.1,267.15,1085.49,272.88,1093.71,272.88z"/>
		<path class="st0" d="M1116.83,277.61v-39.17h25.73v5.81h-19.25v10.79h16.02v5.89h-16.02v10.87h19.25v5.81H1116.83z"/>
		<path class="st0" d="M1189.12,278.52c-11.54,0-19.92-7.8-19.92-20.42c0-11.87,8.3-20.58,19.92-20.58
			c11.45,0,19.92,7.72,19.92,20.33C1209.04,269.8,1200.65,278.52,1189.12,278.52z M1188.95,243.16c-7.8,0-13.2,5.89-13.2,14.69
			c0,9.13,5.39,15.02,13.44,15.02c7.88,0,13.2-5.89,13.2-14.77C1202.4,249.06,1197,243.16,1188.95,243.16z"/>
		<path class="st0" d="M1216.79,238.43h25.15v5.89h-18.67v11.37h15.44v5.98h-15.44v15.93h-6.47V238.43z"/>
		<path class="st0" d="M1269.49,277.61v-39.17h25.73v5.81h-19.25v10.79h16.02v5.89h-16.02v10.87h19.25v5.81H1269.49z"/>
		<path class="st0" d="M1329.7,238.43h6.31v39.59h-7.05l-19.92-30.04l0.17,29.63h-6.31v-39.17h7.22l19.75,29.63L1329.7,238.43z"/>
		<path class="st0" d="M1363.81,272.88c3.07,0,5.89-0.75,7.97-1.83v-8.22h-10.04v-5.89H1378v17.93c-4.15,2.49-9.71,3.65-14.28,3.65
			c-11.78,0-20-7.72-20-20.42c0-12.53,8.22-20.58,20-20.58c4.73,0,10.13,1.25,13.53,3.32l-2.16,5.89c-3.24-2.16-7.3-3.49-11.29-3.49
			c-8.13,0-13.61,5.56-13.61,14.61C1350.2,267.15,1355.6,272.88,1363.81,272.88z"/>
		<path class="st0" d="M1387.07,277.61v-39.17h6.56v39.17H1387.07z"/>
		<path class="st0" d="M1430.17,238.43h6.31v39.59h-7.05l-19.92-30.04l0.17,29.63h-6.31v-39.17h7.22l19.75,29.63L1430.17,238.43z"/>
		<path class="st0" d="M1446.26,277.61v-39.17h25.73v5.81h-19.25v10.79h16.02v5.89h-16.02v10.87h19.25v5.81H1446.26z"/>
		<path class="st0" d="M1479.66,277.61v-39.17h25.73v5.81h-19.25v10.79h16.02v5.89h-16.02v10.87h19.25v5.81H1479.66z"/>
		<path class="st0" d="M1519.62,277.61h-6.56v-39.17c0,0,13.69,0,13.78,0c9.71,0,15.1,4.56,15.1,12.2c0,5.73-2.9,9.54-7.63,11.45
			l9.71,15.52h-7.55l-8.63-14.11l-8.22,0.5V277.61z M1526.26,258.35c6.39-0.08,9.05-2.9,9.05-7.3c0-4.73-2.99-6.81-9.13-6.81
			c-0.08,0-6.64,0-6.64,0v14.19L1526.26,258.35z"/>
		<path class="st0" d="M1550.81,277.61v-39.17h6.56v39.17H1550.81z"/>
		<path class="st0" d="M1593.91,238.43h6.31v39.59h-7.05l-19.92-30.04l0.17,29.63h-6.31v-39.17h7.22l19.75,29.63L1593.91,238.43z"/>
		<path class="st0" d="M1628.02,272.88c3.07,0,5.89-0.75,7.97-1.83v-8.22h-10.04v-5.89h16.27v17.93c-4.15,2.49-9.71,3.65-14.28,3.65
			c-11.78,0-20-7.72-20-20.42c0-12.53,8.22-20.58,20-20.58c4.73,0,10.13,1.25,13.53,3.32l-2.16,5.89c-3.24-2.16-7.3-3.49-11.29-3.49
			c-8.13,0-13.61,5.56-13.61,14.61C1614.41,267.15,1619.81,272.88,1628.02,272.88z"/>
	</g>
	<g>
		<path class="st0" d="M934.8,60.38c0-8.4-6.9-11.73-18.17-15.07c-10.12-2.99-20.93-7.36-20.93-20.13c0-11.39,9.66-19.55,23-19.55
			c8.28,0,15.53,2.3,21.62,6.21l-2.65,6.44c-5.41-3.68-12.42-5.98-18.86-5.98c-10.81,0-15.99,5.75-15.99,12.31
			c0,7.94,7.13,10.93,18.17,14.38c10.35,3.1,20.82,7.82,20.82,20.82c0,11.85-9.89,20.7-24.27,20.7c-8.63,0-16.56-2.53-23.12-6.67
			l2.65-6.56c5.75,3.91,12.54,6.67,20.7,6.67C927.79,73.95,934.8,67.97,934.8,60.38z"/>
		<path class="st0" d="M958.72,26.34v34.04c0,9.2,3.68,13.34,11.39,13.34c6.1,0,11.96-3.11,16.22-7.48V26.34h7.13v52.67l-7.13,1.5
			c0,0,0-8.28,0-8.51c-5.41,5.52-12.31,8.51-18.17,8.51c-10.24,0-16.56-6.55-16.56-18.06V26.34H958.72z"/>
		<path class="st0" d="M1026.04,80.73c-10.01,0-14.49-5.52-14.15-16.56l0.81-31.17l-8.05-0.46l0.35-4.49l7.94-1.84l0.34-11.96h6.79
			l-0.35,12.31h17.6l-0.34,6.33h-17.48l-0.81,31.51c-0.23,6.67,2.19,9.89,7.71,9.89c3.45,0,6.9-1.15,10.12-2.53l1.26,6.21
			C1034.09,79.7,1029.83,80.73,1026.04,80.73z"/>
		<path class="st0" d="M1079.1,72.68c-3.57,4.37-9.2,7.82-15.41,7.82c-9.66,0-16.68-6.21-16.68-14.61c0-9.55,7.48-17.37,31.97-18.75
			c0,0,0-2.76,0-3.11c0-8.28-3.68-12.54-12.42-12.54c-5.75,0-12.77,2.99-17.25,6.33l-1.61-6.67c4.71-3.33,12.65-6.33,19.55-6.33
			c12.19,0,18.98,5.52,18.86,18.86c0,0.34,0,25.3,0,25.3c0,3.79,0.69,5.41,5.29,5.29l-0.46,5.87c-6.9,0.46-10.7-2.3-11.5-7.48
			H1079.1z M1078.99,51.98c-18.06,2.07-24.5,6.1-24.5,13.11c0,5.63,4.6,9.2,10.81,9.2c5.64,0,10.47-3.22,13.69-6.9V51.98z"/>
		<path class="st0" d="M1108.3,79.01h-7.13V26.34l7.13-1.5v11.27c3.45-6.79,8.63-11.27,15.53-11.27c3.45,0,6.79,1.04,9.2,2.42
			l-1.84,6.67c-2.3-1.38-5.06-2.3-8.05-2.3c-5.52,0-10.7,4.14-14.84,13.57V79.01z"/>
		<path class="st0" d="M1176.22,1.5l7.13-1.5v79.01h-7.13c0,0,0-4.71,0-4.95c-3.45,3.22-8.74,6.44-15.3,6.44
			c-14.15,0-23.58-11.39-23.58-27.37c0-16.33,10.93-27.95,26.11-27.95c4.49,0,9.32,1.26,12.77,2.88V1.5z M1163.11,31.63
			c-11.27,0-18.4,8.97-18.4,21.39c0,12.19,6.79,20.93,17.48,20.93c5.41,0,10.35-2.42,14.03-5.87c0,0.23,0-32.43,0-32.43
			C1173,33.12,1168.17,31.63,1163.11,31.63z"/>
		<path class="st0" d="M1187.22,102.7c7.59-3.91,10.12-8.74,10.12-20.01c0,1.15,0-56.35,0-56.35l7.13-1.5c0,0,0,58.42,0,57.85
			c0,13.57-3.45,20.24-12.42,25.07L1187.22,102.7z M1200.91,14.26c-3.22,0-4.83-2.53-4.83-5.29c0-2.65,1.61-5.06,4.83-5.06
			c3.22,0,4.83,2.42,4.83,5.06C1205.74,11.73,1204.12,14.26,1200.91,14.26z"/>
		<path class="st0" d="M1247.11,72.68c-3.57,4.37-9.2,7.82-15.41,7.82c-9.66,0-16.68-6.21-16.68-14.61
			c0-9.55,7.48-17.37,31.97-18.75c0,0,0-2.76,0-3.11c0-8.28-3.68-12.54-12.42-12.54c-5.75,0-12.77,2.99-17.25,6.33l-1.61-6.67
			c4.71-3.33,12.65-6.33,19.55-6.33c12.19,0,18.98,5.52,18.86,18.86c0,0.34,0,25.3,0,25.3c0,3.79,0.69,5.41,5.29,5.29l-0.46,5.87
			c-6.9,0.46-10.7-2.3-11.5-7.48H1247.11z M1247,51.98c-18.06,2.07-24.5,6.1-24.5,13.11c0,5.63,4.6,9.2,10.81,9.2
			c5.64,0,10.47-3.22,13.69-6.9V51.98z"/>
		<path class="st0" d="M1347.97,18.06c-5.75-3.68-12.42-5.75-20.01-5.75c-15.64,0-27.14,11.16-27.14,30.71
			c0,18.98,10.92,30.82,27.37,30.82c7.82,0,15.18-2.76,20.13-6.44l1.38,7.25c-5.29,3.45-13.23,5.87-21.62,5.87
			c-20.82,0-34.73-14.49-34.73-37.26c0-22.89,14.61-37.61,34.73-37.61c8.74,0,16.91,2.64,22.2,5.87L1347.97,18.06z"/>
		<path class="st0" d="M1365.59,53.48c0.23,11.85,7.36,20.36,18.4,20.36c5.75,0,11.27-1.73,15.3-4.37l1.38,6.55
			c-4.49,2.76-10.35,4.49-16.91,4.49c-15.18,0-25.42-11.39-25.42-27.37c0-16.56,10.58-28.29,24.84-28.29
			c11.62,0,19.21,7.59,19.21,19.44c0,2.76-0.46,6.1-1.15,8.4l-35.65,0.23V53.48z M1395.26,47.15c0.12-0.58,0.12-1.72,0.12-2.3
			c0-8.05-4.37-13.57-12.65-13.57c-9.43,0-15.53,7.25-16.68,15.99L1395.26,47.15z"/>
		<path class="st0" d="M1447.96,79.01V44.97c0-9.2-3.68-13.34-11.62-13.34c-5.75,0-11.62,3.1-15.99,7.48v39.91h-7.13V26.34l7.13-1.5
			v8.62c5.52-5.52,12.42-8.62,17.94-8.62c10.58,0,16.79,6.55,16.79,18.06v36.11H1447.96z"/>
		<path class="st0" d="M1485.56,80.73c-10.01,0-14.49-5.52-14.15-16.56l0.81-31.17l-8.05-0.46l0.34-4.49l7.94-1.84l0.35-11.96h6.79
			l-0.35,12.31h17.6l-0.35,6.33H1479l-0.8,31.51c-0.23,6.67,2.18,9.89,7.71,9.89c3.45,0,6.9-1.15,10.12-2.53l1.27,6.21
			C1493.61,79.7,1489.35,80.73,1485.56,80.73z"/>
		<path class="st0" d="M1510.56,53.48c0.23,11.85,7.36,20.36,18.4,20.36c5.75,0,11.27-1.73,15.3-4.37l1.38,6.55
			c-4.49,2.76-10.35,4.49-16.91,4.49c-15.18,0-25.42-11.39-25.42-27.37c0-16.56,10.58-28.29,24.84-28.29
			c11.62,0,19.21,7.59,19.21,19.44c0,2.76-0.46,6.1-1.15,8.4l-35.65,0.23V53.48z M1540.23,47.15c0.12-0.58,0.12-1.72,0.12-2.3
			c0-8.05-4.37-13.57-12.65-13.57c-9.43,0-15.53,7.25-16.68,15.99L1540.23,47.15z"/>
		<path class="st0" d="M1567.62,79.01h-7.13V26.34l7.13-1.5v11.27c3.45-6.79,8.62-11.27,15.53-11.27c3.45,0,6.79,1.04,9.2,2.42
			l-1.84,6.67c-2.3-1.38-5.06-2.3-8.05-2.3c-5.52,0-10.7,4.14-14.83,13.57V79.01z"/>
		<path class="st0" d="M1655.25,7.71c-2.42-1.15-5.18-2.19-8.05-2.19c-5.87,0-8.74,3.79-8.74,12.31v8.74h16.56l-0.34,6.33h-16.22
			v46.12h-7.02V33.12l-8.51-0.58l0.46-4.49l7.94-1.84l0.12-8.28c0.23-13.92,6.67-18.98,15.87-18.98c3.56,0,7.25,1.15,9.66,2.3
			C1656.97,1.38,1655.25,7.82,1655.25,7.71z"/>
		<path class="st0" d="M1684.34,80.5c-14.61,0-25.42-10.81-25.42-27.72c0-16.79,11.27-27.95,25.99-27.95s25.3,10.81,25.3,27.72
			C1710.22,69.35,1698.95,80.5,1684.34,80.5z M1684.57,31.28c-11.16,0-18.52,8.85-18.52,21.28c0,12.88,7.47,21.51,18.63,21.51
			c11.16,0,18.52-8.86,18.52-21.28C1703.2,39.91,1695.73,31.28,1684.57,31.28z"/>
		<path class="st0" d="M1728.04,79.01h-7.13V26.34l7.13-1.5v11.27c3.45-6.79,8.62-11.27,15.53-11.27c3.45,0,6.79,1.04,9.2,2.42
			l-1.84,6.67c-2.3-1.38-5.06-2.3-8.05-2.3c-5.52,0-10.7,4.14-14.83,13.57V79.01z"/>
	</g>
	<g>
		<path class="st0" d="M899.49,184.64v-71.88h43.47v6.79h-36.11v25.76h30.13v6.67h-30.13v25.88h36.11v6.79H899.49z"/>
		<path class="st0" d="M989.87,184.64V150.6c0-9.2-3.68-13.34-11.62-13.34c-5.75,0-11.62,3.11-15.99,7.48v39.91h-7.13v-52.67
			l7.13-1.5v8.63c5.52-5.52,12.42-8.63,17.94-8.63c10.58,0,16.79,6.56,16.79,18.06v36.11H989.87z"/>
		<path class="st0" d="M1027.48,186.37c-10.01,0-14.49-5.52-14.15-16.56l0.81-31.17l-8.05-0.46l0.35-4.48l7.94-1.84l0.34-11.96h6.79
			l-0.35,12.31h17.6l-0.34,6.33h-17.48l-0.81,31.51c-0.23,6.67,2.19,9.89,7.71,9.89c3.45,0,6.9-1.15,10.12-2.53l1.26,6.21
			C1035.53,185.33,1031.27,186.37,1027.48,186.37z"/>
		<path class="st0" d="M1059.5,184.64h-7.13v-52.67l7.13-1.5v11.27c3.45-6.79,8.63-11.27,15.53-11.27c3.45,0,6.79,1.04,9.2,2.42
			l-1.84,6.67c-2.3-1.38-5.06-2.3-8.05-2.3c-5.52,0-10.7,4.14-14.84,13.57V184.64z"/>
		<path class="st0" d="M1095.98,159.11c0.23,11.85,7.36,20.36,18.4,20.36c5.75,0,11.27-1.72,15.3-4.37l1.38,6.56
			c-4.49,2.76-10.35,4.49-16.91,4.49c-15.18,0-25.42-11.39-25.42-27.37c0-16.56,10.58-28.29,24.84-28.29
			c11.62,0,19.21,7.59,19.21,19.44c0,2.76-0.46,6.09-1.15,8.39l-35.65,0.23V159.11z M1125.65,152.78c0.11-0.58,0.11-1.73,0.11-2.3
			c0-8.05-4.37-13.57-12.65-13.57c-9.43,0-15.53,7.25-16.68,15.99L1125.65,152.78z"/>
		<path class="st0" d="M1166.04,130.82c14.26,0,23.58,11.27,23.58,27.26c0,16.33-10.81,28.06-25.99,28.06
			c-4.14,0-9.43-1.15-12.88-2.76v28.06h-7.13v-79.7l7.13-1.5c0,0,0,6.67,0,7.01C1154.31,133.92,1159.6,130.82,1166.04,130.82z
			 M1150.74,175.55c3.22,2.53,8.17,4.14,13.23,4.14c11.27,0,18.29-9.09,18.29-21.51c0-12.19-6.67-20.82-17.37-20.82
			c-5.41,0-10.35,2.42-14.15,5.87C1150.74,142.89,1150.74,175.55,1150.74,175.55z"/>
		<path class="st0" d="M1207.47,184.64h-7.13v-52.67l7.13-1.5v11.27c3.45-6.79,8.62-11.27,15.53-11.27c3.45,0,6.79,1.04,9.2,2.42
			l-1.84,6.67c-2.3-1.38-5.06-2.3-8.05-2.3c-5.52,0-10.7,4.14-14.83,13.57V184.64z"/>
		<path class="st0" d="M1243.95,159.11c0.23,11.85,7.36,20.36,18.4,20.36c5.75,0,11.27-1.72,15.3-4.37l1.38,6.56
			c-4.49,2.76-10.35,4.49-16.91,4.49c-15.18,0-25.42-11.39-25.42-27.37c0-16.56,10.58-28.29,24.84-28.29
			c11.62,0,19.21,7.59,19.21,19.44c0,2.76-0.46,6.09-1.15,8.39l-35.65,0.23V159.11z M1273.62,152.78c0.12-0.58,0.12-1.73,0.12-2.3
			c0-8.05-4.37-13.57-12.65-13.57c-9.43,0-15.53,7.25-16.68,15.99L1273.62,152.78z"/>
		<path class="st0" d="M1326.31,184.64V150.6c0-9.2-3.68-13.34-11.62-13.34c-5.75,0-11.62,3.11-15.99,7.48v39.91h-7.13v-52.67
			l7.13-1.5v8.63c5.52-5.52,12.42-8.63,17.94-8.63c10.58,0,16.79,6.56,16.79,18.06v36.11H1326.31z"/>
		<path class="st0" d="M1351.01,159.11c0.23,11.85,7.36,20.36,18.4,20.36c5.75,0,11.27-1.72,15.3-4.37l1.38,6.56
			c-4.49,2.76-10.35,4.49-16.91,4.49c-15.18,0-25.42-11.39-25.42-27.37c0-16.56,10.58-28.29,24.84-28.29
			c11.62,0,19.21,7.59,19.21,19.44c0,2.76-0.46,6.09-1.15,8.39l-35.65,0.23V159.11z M1380.68,152.78c0.12-0.58,0.12-1.73,0.12-2.3
			c0-8.05-4.37-13.57-12.65-13.57c-9.43,0-15.53,7.25-16.68,15.99L1380.68,152.78z"/>
		<path class="st0" d="M1405.16,131.97v34.04c0,9.2,3.68,13.34,11.38,13.34c6.1,0,11.96-3.11,16.22-7.48v-39.91h7.13v52.67
			l-7.13,1.5c0,0,0-8.28,0-8.51c-5.41,5.52-12.31,8.51-18.17,8.51c-10.24,0-16.56-6.56-16.56-18.06v-36.11H1405.16z"/>
		<path class="st0" d="M1460.67,184.64h-7.13v-52.67l7.13-1.5v11.27c3.45-6.79,8.62-11.27,15.53-11.27c3.45,0,6.79,1.04,9.2,2.42
			l-1.84,6.67c-2.3-1.38-5.06-2.3-8.05-2.3c-5.52,0-10.7,4.14-14.83,13.57V184.64z"/>
		<path class="st0" d="M1508.66,186.14c-6.21,0-12.77-1.84-17.25-4.72l1.96-6.55c4.49,2.99,10.12,4.83,15.53,4.83
			c6.33,0,11.85-3.11,11.85-8.86c0-6.33-6.67-8.17-13.23-10.24c-7.25-2.19-15.29-5.75-15.29-14.95c0-9.54,7.93-15.18,17.83-15.18
			c5.75,0,11.5,1.61,15.99,3.91l-2.07,6.44c-4.37-2.42-9.78-3.91-14.38-3.91c-6.44,0-10.58,2.99-10.58,8.05
			c0,5.98,6.21,7.82,13,9.89c7.48,2.19,15.53,5.64,15.53,15.41C1527.52,179.92,1519.24,186.14,1508.66,186.14z"/>
		<path class="st0" d="M1574.43,184.64V150.6c0-9.2-3.68-13.34-11.27-13.34c-6.09,0-11.96,3.11-16.33,7.48v39.91h-7.13v-77.51
			l7.13-1.5c0,0,0,33.01,0,33.24c5.52-5.52,12.42-8.4,18.29-8.4c10.24,0,16.45,6.56,16.45,18.06v36.11H1574.43z"/>
		<path class="st0" d="M1599.6,119.89c-3.22,0-4.83-2.53-4.83-5.29c0-2.64,1.61-5.06,4.83-5.06c3.22,0,4.83,2.42,4.83,5.06
			C1604.43,117.36,1602.82,119.89,1599.6,119.89z M1596.03,184.64v-52.67l7.13-1.5v54.17H1596.03z"/>
		<path class="st0" d="M1640.44,130.82c14.26,0,23.58,11.27,23.58,27.26c0,16.33-10.81,28.06-25.99,28.06
			c-4.14,0-9.43-1.15-12.88-2.76v28.06h-7.13v-79.7l7.13-1.5c0,0,0,6.67,0,7.01C1628.7,133.92,1634,130.82,1640.44,130.82z
			 M1625.14,175.55c3.22,2.53,8.17,4.14,13.23,4.14c11.27,0,18.29-9.09,18.29-21.51c0-12.19-6.67-20.82-17.37-20.82
			c-5.41,0-10.35,2.42-14.15,5.87C1625.14,142.89,1625.14,175.55,1625.14,175.55z"/>
		<path class="st0" d="M1719.79,186.14c-13.34,0-21.16-9.2-21.16-19.67c0-10.01,7.82-16.91,17.83-20.13
			c-7.36-3.79-12.19-9.32-12.19-16.91c0-8.97,7.94-18.06,20.36-18.06c11.5,0,18.75,7.94,18.75,17.02c0,7.94-5.87,14.03-14.49,17.48
			c5.29,2.64,11.62,7.94,16.91,14.26l12.19-19.32h8.51l-17.25,23.23l16.33,20.13l-7.02,2.07l-13.46-17.14
			C1738.53,179.24,1729.79,186.14,1719.79,186.14z M1720.94,148.76c-8.28,3.68-15.07,9.32-15.07,17.37
			c0,7.25,5.52,13.69,14.84,13.69c7.71,0,14.95-5.64,21.16-14.61C1734.97,156.92,1727.84,151.29,1720.94,148.76z M1736.35,128.98
			c0-6.33-5.17-11.39-12.31-11.39c-7.82,0-12.42,5.41-12.42,11.39c0,7.25,5.18,11.62,12.42,14.72
			C1731.52,140.48,1736.35,135.88,1736.35,128.98z"/>
		<path class="st0" d="M1828.46,119.66v64.98h-7.36v-64.98h-25.3v-6.9h57.96v6.9H1828.46z"/>
		<path class="st0" d="M1855.69,159.11c0.23,11.85,7.36,20.36,18.4,20.36c5.75,0,11.27-1.72,15.3-4.37l1.38,6.56
			c-4.49,2.76-10.35,4.49-16.91,4.49c-15.18,0-25.42-11.39-25.42-27.37c0-16.56,10.58-28.29,24.84-28.29
			c11.62,0,19.21,7.59,19.21,19.44c0,2.76-0.46,6.09-1.15,8.39l-35.65,0.23V159.11z M1885.36,152.78c0.12-0.58,0.12-1.73,0.12-2.3
			c0-8.05-4.37-13.57-12.65-13.57c-9.43,0-15.53,7.25-16.68,15.99L1885.36,152.78z"/>
		<path class="st0" d="M1928.28,186.14c-15.87,0-25.76-11.39-25.76-27.72c0-16.45,10.93-27.95,25.88-27.95
			c6.44,0,11.96,1.61,16.45,4.49l-1.84,6.44c-4.03-2.65-9.09-4.25-14.61-4.25c-11.38,0-18.52,8.51-18.52,21.05
			c0,12.88,7.48,21.28,18.63,21.28c5.29,0,10.58-1.72,14.61-4.37l1.5,6.56C1940.12,184.41,1934.37,186.14,1928.28,186.14z"/>
		<path class="st0" d="M1992.2,184.64V150.6c0-9.2-3.68-13.34-11.27-13.34c-6.09,0-11.96,3.11-16.33,7.48v39.91h-7.13v-77.51
			l7.13-1.5c0,0,0,33.01,0,33.24c5.52-5.52,12.42-8.4,18.29-8.4c10.24,0,16.45,6.56,16.45,18.06v36.11H1992.2z"/>
		<path class="st0" d="M2047.51,184.64V150.6c0-9.2-3.68-13.34-11.62-13.34c-5.75,0-11.62,3.11-15.99,7.48v39.91h-7.13v-52.67
			l7.13-1.5v8.63c5.52-5.52,12.42-8.63,17.94-8.63c10.58,0,16.79,6.56,16.79,18.06v36.11H2047.51z"/>
		<path class="st0" d="M2090.38,186.14c-14.61,0-25.42-10.81-25.42-27.72c0-16.79,11.27-27.95,25.99-27.95s25.3,10.81,25.3,27.72
			C2116.25,174.98,2104.98,186.14,2090.38,186.14z M2090.61,136.91c-11.16,0-18.52,8.86-18.52,21.28c0,12.88,7.47,21.51,18.63,21.51
			c11.16,0,18.52-8.86,18.52-21.28C2109.24,145.54,2101.76,136.91,2090.61,136.91z"/>
		<path class="st0" d="M2126.98,184.64v-77.51l7.13-1.5v79.01H2126.98z"/>
		<path class="st0" d="M2170.01,186.14c-14.61,0-25.42-10.81-25.42-27.72c0-16.79,11.27-27.95,25.99-27.95s25.3,10.81,25.3,27.72
			C2195.89,174.98,2184.62,186.14,2170.01,186.14z M2170.24,136.91c-11.16,0-18.52,8.86-18.52,21.28c0,12.88,7.47,21.51,18.63,21.51
			c11.16,0,18.52-8.86,18.52-21.28C2188.87,145.54,2181.4,136.91,2170.24,136.91z"/>
		<path class="st0" d="M2204.81,176.36c0-4.37,3.8-8.17,8.63-10.01c-5.06-3.11-8.51-8.86-8.51-16.1c0-11.16,8.28-19.78,20.7-19.78
			c5.52,0,9.55,1.5,12.42,3.11l14.61-1.15l0.34,7.13l-11.62-1.15c2.53,2.53,4.25,7.59,4.25,11.85c0,11.16-8.74,19.32-20.47,19.32
			c-2.88,0-5.17-0.57-7.82-1.49c-2.76,1.15-5.87,3.33-5.87,6.33c0,3.33,2.53,5.41,11.96,5.41c0,0,7.59,0,6.79,0
			c15.29,0,21.85,5.17,21.85,13.8c0,11.62-13,19.55-27.72,19.55c-14.15,0-23.81-6.21-23.81-15.41c0-5.98,4.6-11.27,11.39-13
			C2207.45,183.15,2204.81,180.16,2204.81,176.36z M2207.45,196.49c0,6.21,6.79,10.81,17.94,10.81c10.92,0,19.78-5.29,19.78-12.42
			c0-6.21-5.52-8.4-15.99-8.4c-3.57,0-8.05-0.12-11.04-0.34C2211.82,187.86,2207.45,192,2207.45,196.49z M2225.51,163.82
			c8.05,0,13.11-5.75,13.11-13.8c0-7.82-4.6-13.69-13.46-13.69c-8.17,0-13.23,5.87-13.23,14.03
			C2211.94,157.96,2217,163.82,2225.51,163.82z"/>
		<path class="st0" d="M2288.72,184.07l-4.25,11.39c-4.83,12.88-9.89,16.56-17.02,16.56c-4.03,0-7.02-1.04-10.24-2.42l2.18-6.56
			c2.53,1.38,5.17,2.3,8.05,2.3c4.02,0,7.01-2.19,10.81-12.19l3.56-9.32l-20.59-51.87h7.71l16.56,43.47l16.22-43.47h7.48
			L2288.72,184.07z"/>
	</g>
	<g>
		<path class="st1" d="M458.42,180.63c-8.81,0-17.11-12.71-25.94-23.35c-18.15-21.79-22.83-26.72-22.83-29.05
			c0-1.83,16.09-13.24,29.05-25.95c8.05-7.78,16.87-18.94,16.87-21.28c0-0.78-1.04-1.04-3.11-1.04c-3.12,0-18.16,0.78-21.54,0.78
			c-3.11,0-8.04-0.78-10.64-0.78c-3.36,0-4.66,0.52-4.66,2.59c0,2.34,1.3,2.86,5.2,2.86c11.4,0,12.19,0.52,12.19,4.67
			c0,5.43-2.34,9.84-12.46,19.45c-8.29,7.78-35.28,31.65-41.77,31.65c-0.77,0-1.04-0.78-1.04-1.82c0-42.28,1.55-71.34,1.55-110.77
			c0-8.3,0.52-19.2,0.52-22.57c0-1.56-0.52-2.33-1.81-2.33c-2.34,0-17.65,5.7-36.33,5.7c-2.85,0-3.37,1.05-3.37,3.64
			c0,1.82,1.03,2.59,11.67,2.59c7,0,9.08,2.34,9.08,20.76c0,54.74-0.78,131.54-0.78,139.06c0,3.88-2.33,3.88-11.15,3.88
			c-6.22,0-7.52,1.31-7.52,3.38c0,2.34,1.56,2.6,7.52,2.6c3.63,0,13.23-0.52,22.06-0.52c8.3,0,20.23,0.52,24.13,0.52
			c5.71,0,7,0,7-2.6c0-2.07-1.04-3.38-7-3.38c-16.08,0-15.56,0-15.56-12.18v-16.35c0-2.34,3.63-4.15,7.78-6.75
			c4.41-2.86,8.04-5.44,9.08-5.44c1.56,0,12.46,16.34,23.34,28.8c10.9,12.45,13.24,18.93,17.91,18.93c3.63,0,11.42-0.25,14.53-0.25
			c2.33,0,5.7,0.25,8.82,0.25c5.71,0,7.52-0.52,7.52-2.32C466.73,181.93,464.65,180.63,458.42,180.63 M560.7,179.32
			c-6.23,0-6.49,1.56-6.49,3.38c0,2.08,0.52,2.6,6.49,2.6c3.63,0,17.38-0.52,26.2-0.52c4.67,0,10.38,0.52,14.27,0.52
			c9.34,0,11.16,0,11.16-2.6c0-2.07,0.52-3.62-12.45-3.62c-4.67,0-6.48-2.86-6.48-24.39c0-7.54,1.3-28.02,1.3-126.87
			c0-7.78,1.3-17.12,1.3-20.24c0-2.86-1.3-4.15-2.6-4.15c-1.55,0-11.42,4.41-31.65,5.71c-4.41,0.25-6.49,0-6.49,3.11
			c0,2.86,2.6,3.37,7.26,3.37c11.67,0,13.23,0,13.23,16.35v142.95C575.74,179.58,571.33,179.32,560.7,179.32 M653.73,82.82
			c11.93,0,27.25,19.2,27.25,25.68c0,1.55-0.26,2.08-3.12,2.59c-19.46,3.12-33.46,6.5-46.96,6.5c-3.12,0-3.12-0.26-3.12-1.55
			C627.78,112.39,634.01,82.82,653.73,82.82 M661,189.45c21.01,0,43.06-16.36,43.06-17.65c0-0.52-0.78-2.06-2.08-2.06
			c-1.55,0-10.88,6.22-28.01,6.22c-19.71,0-47.47-9.6-47.47-45.4c0-5.97,0.78-7.27,4.93-7.53c29.58-1.82,55.52-7.51,62.27-9.08
			c7-1.55,10.63-2.6,10.63-3.63c0-2.08-4.14-8.3-8.55-13.48c-9.34-10.9-25.95-19.46-39.44-19.46c-23.61,0-48.26,21.8-48.26,58.38
			C608.07,179.07,639.72,189.45,661,189.45 M504.09,82.82c11.94,0,27.25,19.2,27.25,25.68c0,1.55-0.26,2.08-3.12,2.59
			c-19.46,3.12-33.47,6.5-46.96,6.5c-3.12,0-3.12-0.26-3.12-1.55C478.15,112.39,484.38,82.82,504.09,82.82 M511.36,189.45
			c21.01,0,43.07-16.36,43.07-17.65c0-0.52-0.78-2.06-2.08-2.06c-1.56,0-10.9,6.22-28.02,6.22c-19.72,0-47.48-9.6-47.48-45.4
			c0-5.97,0.77-7.27,4.93-7.53c29.57-1.82,55.51-7.51,62.26-9.08c7-1.55,10.64-2.6,10.64-3.63c0-2.08-4.15-8.3-8.57-13.48
			c-9.34-10.9-25.94-19.46-39.43-19.46c-23.62,0-48.27,21.8-48.27,58.38C458.42,179.07,490.08,189.45,511.36,189.45 M323,182.7
			c0-2.33-0.26-3.12-7-3.12c-19.2,0-19.98,0-19.98-12.71v-53.45c0-10.88,5.71-17.12,20.75-17.12c12.97,0,16.09,10.64,19.72,10.64
			c1.55,0,5.71-11.41,5.71-14.01c0-6.74-11.94-12.45-16.6-12.45c-12.2,0-24.39,13.49-28.28,13.49c-1.04,0-1.3-1.82-1.3-4.15
			c0-0.78,0.52-6.49,0.52-7.79c0-2.08-1.04-2.86-2.07-2.86c-4.15,0-9.09,1.3-13.24,1.3c-5.18,0-10.11-0.52-18.94-0.52
			c-4.41,0-4.15,0.78-4.15,3.9c0,2.86,0,2.6,4.68,2.6c14.53,0,14.01,0.52,14.01,18.15v71.1c0,3.62-0.78,3.88-11.41,3.88
			c-6.23,0-6.5,0.52-6.5,3.12c0,2.6,0.52,2.6,6.5,2.6c3.63,0,12.45-1.29,21.28-1.29c8.29,0,25.68,1.29,29.31,1.29
			C322.73,185.3,323,185.56,323,182.7 M201.59,82.82c11.94,0,27.24,19.2,27.24,25.68c0,1.55-0.26,2.08-3.12,2.59
			c-19.45,3.12-33.46,6.5-46.96,6.5c-3.11,0-3.11-0.26-3.11-1.55C175.64,112.39,181.87,82.82,201.59,82.82 M208.85,189.45
			c21.01,0,43.07-16.36,43.07-17.65c0-0.52-0.78-2.06-2.07-2.06c-1.55,0-10.9,6.22-28.02,6.22c-19.72,0-47.47-9.6-47.47-45.4
			c0-5.97,0.77-7.27,4.93-7.53c29.57-1.82,55.52-7.51,62.26-9.08c7.01-1.55,10.64-2.6,10.64-3.63c0-2.08-4.14-8.3-8.56-13.48
			c-9.35-10.9-25.94-19.46-39.43-19.46c-23.61,0-48.26,21.8-48.26,58.38C155.92,179.07,187.57,189.45,208.85,189.45 M78.74,182.65
			c-9.55,0-19.08-2.09-22.37-5.67c-2.68-2.99-3.57-19.69-3.57-22.37v-53.39c0-6.57,2.39-7.77,10.73-7.77
			c32.51,0,54.58,20.88,54.58,47.73C118.11,167.13,101.41,182.65,78.74,182.65 M52.8,18.9c0-5.96,0.89-8.66,20.57-8.66
			c27.15,0,39.68,28.64,39.68,43.56c0,23.57-9.85,29.23-18.5,35.79c0,0-12.53-1.79-30.72-1.79c-7.16,0-11.03,0.59-11.03-4.18V18.9z
			 M114.83,95.54c-5.97-2.97-11.64-4.46-11.64-5.05c0-0.89,6.56-4.19,12.23-8.06c9.54-6.56,22.37-17,22.37-38.18
			c0-21.18-16.7-41.16-55.48-41.16c-26.84,0-41.16,1.8-47.42,1.8c-10.44,0-19.69-0.3-28.94-0.3C0.89,4.58,0,4.88,0,6.96
			c0,3.58,1.19,3.88,14.61,3.88c8.35,0,13.12,2.69,13.12,26.25v137.2c0,4.47-0.6,5.07-14.02,5.07c-6.56,0-8.36,0.6-8.36,3.57
			c0,2.99,2.09,3.29,5.07,3.29c9.54,0,16.1-1.19,28.63-1.19c13.12,0,25.65,2.98,38.18,2.98c41.46,0,69.2-15.81,69.2-49.22
			C146.45,112.85,128.85,102.7,114.83,95.54 M812.5,79.44c-3.63,0-10.64,1.04-14.53,1.04c-7.01,0-11.67-0.52-18.68-0.52
			c-4.67,0-5.44,0-5.44,3.38c0,2.59,1.03,2.59,9.08,2.59c8.82,0,8.82,1.55,8.82,9.34c0,3.63-9.34,30.62-15.57,49.29
			c-4.15,12.2-5.71,15.83-7.52,15.83c-1.04,0-4.15-4.41-6.23-9.86c-15.57-39.95-22.31-49.04-22.31-56.55c0-5.96,1.55-7.52,7.78-7.52
			c5.45,0,6.49-0.26,6.49-2.6c0-2.86-1.04-3.9-6.49-3.9c-8.3,0-17.38,0.78-24.64,0.78c-6.23,0-8.05-0.52-15.31-0.52
			c-4.67,0-5.45,1.3-5.45,3.64c0,2.34,0.26,2.6,5.45,2.6c4.67,0,6.48,1.29,12.97,16.86c14.27,33.73,35.02,81.73,35.02,84.58
			c0,7.78-22.31,38.39-31.65,50.07c-8.83,11.16-21.01,12.71-21.01,14.27c0,1.3,2.6,2.59,7,2.59c5.71,0,7.52-2.08,15.3-3.11
			c5.71-0.79,8.83-1.04,11.68-6.75c8.3-17.13,19.98-38.14,36.32-77.83c20.49-49.82,31.9-80.94,37.62-80.94
			c3.11,0,6.74-1.3,6.74-3.63C817.95,79.7,816.65,79.44,812.5,79.44"/>
	</g>
</g>
</svg>
